<svg width="8" height="13" viewBox="0 0 8 13" fill="none" xmlns="http://www.w3.org/2000/svg">
<path d="M4.48316 13H2.21143C2.03983 13 1.90058 12.8607 1.90058 12.6891V7.35362H0.310851C0.139258 7.35362 0 7.21436 0 7.04277V4.84252C0 4.67092 0.139258 4.53167 0.310851 4.53167H1.90058V3.22047C1.90056 1.23347 3.10359 0 5.04083 0C5.90625 0 6.6032 0.0665265 6.77912 0.0901465C6.93394 0.110664 7.04894 0.24247 7.04894 0.398519V2.36562C7.04894 2.53722 6.90968 2.67647 6.73809 2.67647L5.57424 2.67772C4.90218 2.67772 4.794 2.90153 4.794 3.43807V4.53229H6.66224C6.75176 4.53229 6.83695 4.57083 6.89537 4.63798C6.95444 4.70451 6.9818 4.79403 6.97061 4.88293L6.6871 7.08316C6.66721 7.23859 6.5348 7.35485 6.37875 7.35485H4.794V12.6904C4.79401 12.8614 4.65475 13 4.48316 13ZM2.52228 12.3783H4.17229V7.04275C4.17229 6.87116 4.31155 6.7319 4.48315 6.7319H6.10519L6.30912 5.15337H4.48316C4.31157 5.15337 4.17231 5.01411 4.17231 4.84252V3.43745C4.17231 2.84434 4.31779 2.05538 5.57428 2.05538L6.42789 2.05475V0.678905C6.1102 0.651543 5.59977 0.621702 5.04085 0.621702C3.46356 0.621702 2.5223 1.59283 2.5223 3.22045V4.8425C2.5223 5.01409 2.38304 5.15335 2.21144 5.15335H0.621718V6.73188H2.21144C2.38304 6.73188 2.5223 6.87114 2.5223 7.04273V12.3783H2.52228Z"/>
</svg>
