<svg width="12" height="12" viewBox="0 0 12 12" fill="none" xmlns="http://www.w3.org/2000/svg">
<path d="M10.3333 0H1.66667C0.746582 0.00113933 0.00113933 0.746582 0 1.66667V10.3333C0.00113933 11.2534 0.746582 11.9989 1.66667 12H10.3333C11.2534 11.9989 11.9989 11.2534 12 10.3333V1.66667C11.9989 0.746582 11.2534 0.00113933 10.3333 0ZM11.3333 10.3333C11.3333 10.8856 10.8856 11.3333 10.3333 11.3333H1.66667C1.11442 11.3333 0.666667 10.8856 0.666667 10.3333V1.66667C0.666667 1.11442 1.11442 0.666667 1.66667 0.666667H10.3333C10.8856 0.666667 11.3333 1.11442 11.3333 1.66667V10.3333Z" fill="#C4C4C4"/>
<path d="M5.99997 2.66647C4.15899 2.66647 2.66664 4.15882 2.66664 5.99981C2.66664 7.84079 4.15899 9.33314 5.99997 9.33314C7.84095 9.33314 9.3333 7.84079 9.3333 5.99981C9.33135 4.15964 7.84014 2.66843 5.99997 2.66647ZM5.99997 8.66647C4.52715 8.66647 3.3333 7.47263 3.3333 5.99981C3.3333 4.52699 4.52715 3.33314 5.99997 3.33314C7.47279 3.33314 8.66664 4.52699 8.66664 5.99981C8.66501 7.47181 7.47197 8.66485 5.99997 8.66647Z" fill="#C4C4C4"/>
<path d="M10.2353 1.41165C9.65055 1.41165 9.17646 1.88574 9.17646 2.47048C9.17646 3.05521 9.65055 3.5293 10.2353 3.5293C10.82 3.5293 11.2941 3.05521 11.2941 2.47048C11.2941 1.88574 10.82 1.41165 10.2353 1.41165ZM10.2353 2.82342C10.0404 2.82342 9.88234 2.66539 9.88234 2.47048C9.88234 2.27556 10.0404 2.11753 10.2353 2.11753C10.4302 2.11753 10.5882 2.27556 10.5882 2.47048C10.5882 2.66539 10.4302 2.82342 10.2353 2.82342Z" fill="#C4C4C4"/>
</svg>
