<svg width="28" height="22" viewBox="0 0 28 22" fill="none" xmlns="http://www.w3.org/2000/svg">
<path d="M6.49994 8.00006H1.49984C1.08331 8.00006 0.729068 8.14585 0.437375 8.43755C0.145737 8.72907 0 9.08321 0 9.50001V12.5003C0 12.9168 0.145737 13.2707 0.437375 13.5623C0.729068 13.854 1.08331 13.9998 1.49984 13.9998H6.49994C6.91646 13.9998 7.27071 13.854 7.5624 13.5623C7.85409 13.2707 7.99978 12.9168 7.99978 12.5003V9.50001C7.99978 9.08321 7.85409 8.72907 7.5624 8.43755C7.27071 8.14602 6.91646 8.00006 6.49994 8.00006Z" fill="#C4C4C4"/>
<path d="M6.49994 0H1.49984C1.08331 0 0.729068 0.145737 0.437375 0.43743C0.145737 0.729123 0 1.08337 0 1.49989V4.50006C0 4.91686 0.145737 5.27121 0.437375 5.56269C0.729068 5.85422 1.08331 6.00017 1.49984 6.00017H6.49994C6.91646 6.00017 7.27071 5.85422 7.5624 5.56269C7.85409 5.27116 7.99978 4.91702 7.99978 4.50023V1.50011C7.99978 1.08359 7.85409 0.729342 7.5624 0.437485C7.27071 0.145901 6.91646 0 6.49994 0Z" fill="#C4C4C4"/>
<path d="M6.49994 16.0001H1.49984C1.08331 16.0001 0.729068 16.1458 0.437375 16.4376C0.145737 16.7294 0 17.0835 0 17.5001V20.5005C0 20.917 0.145737 21.2714 0.437375 21.5628C0.729068 21.8546 1.08331 22.0001 1.49984 22.0001H6.49994C6.91646 22.0001 7.27071 21.8543 7.5624 21.5628C7.85409 21.2714 7.99978 20.917 7.99978 20.5005V17.5001C7.99978 17.0835 7.85409 16.7294 7.5624 16.4378C7.27071 16.1462 6.91646 16.0001 6.49994 16.0001Z" fill="#C4C4C4"/>
<path d="M26.4994 8.00006H11.4997C11.083 8.00006 10.7289 8.14585 10.4373 8.43755C10.1456 8.72924 9.99988 9.08321 9.99988 9.50001V12.5003C9.99988 12.9168 10.1456 13.2707 10.4373 13.5623C10.7288 13.854 11.083 13.9998 11.4997 13.9998H26.4998C26.9163 13.9998 27.2706 13.854 27.562 13.5623C27.8538 13.2707 27.9995 12.9168 27.9995 12.5003V9.50001C27.9995 9.08321 27.8538 8.72907 27.5619 8.43755C27.2702 8.14585 26.9163 8.00006 26.4994 8.00006Z" fill="#C4C4C4"/>
<path d="M26.4994 16.0001H11.4997C11.083 16.0001 10.7289 16.1458 10.4373 16.4376C10.1456 16.7294 9.99988 17.0834 9.99988 17.4999V20.5001C9.99988 20.9167 10.1456 21.2712 10.4373 21.5628C10.7288 21.8543 11.083 21.9999 11.4997 21.9999H26.4998C26.9163 21.9999 27.2706 21.8542 27.562 21.5628C27.8538 21.271 27.9995 20.9167 27.9995 20.5001V17.4999C27.9995 17.0834 27.8538 16.729 27.5619 16.4376C27.2702 16.1462 26.9163 16.0001 26.4994 16.0001Z" fill="#C4C4C4"/>
<path d="M27.5619 0.43743C27.2702 0.145901 26.9163 0 26.4994 0H11.4997C11.083 0 10.7289 0.145737 10.4373 0.43743C10.1456 0.729123 9.99988 1.08337 9.99988 1.49989V4.50006C9.99988 4.91686 10.1456 5.27078 10.4373 5.56253C10.7288 5.85405 11.083 6.00001 11.4997 6.00001H26.4998C26.9163 6.00001 27.2702 5.85405 27.562 5.56253C27.8538 5.271 27.9995 4.91686 27.9995 4.50006V1.49989C27.9995 1.08331 27.8538 0.729123 27.5619 0.43743Z" fill="#C4C4C4"/>
</svg>
