<svg width="18" height="10" viewBox="0 0 18 10" fill="none" xmlns="http://www.w3.org/2000/svg">
<path d="M16.3858 7.66874C16.0128 7.22173 15.5914 6.8226 15.1838 6.43661C15.0406 6.30094 14.8925 6.16064 14.7498 6.02135C14.7497 6.02131 14.7497 6.02128 14.7497 6.02125C14.5578 5.83406 14.4638 5.7012 14.454 5.60307C14.4444 5.50661 14.5103 5.3635 14.6619 5.15197C14.8886 4.8338 15.1302 4.51509 15.364 4.2069C15.5718 3.93294 15.7866 3.64963 15.9925 3.36472L16.0387 3.30075C16.4405 2.74472 16.8558 2.16976 17.0784 1.46912C17.142 1.26823 17.208 0.970959 17.0488 0.709992C16.8895 0.448957 16.5942 0.371591 16.3861 0.336157C16.2844 0.318741 16.188 0.317301 16.0982 0.317301L13.4924 0.31499C13.0418 0.307488 12.7293 0.521031 12.5589 0.949859C12.4226 1.29235 12.2616 1.68926 12.0751 2.06577C11.7183 2.79264 11.2648 3.62984 10.6076 4.32737L10.5784 4.35845C10.5336 4.40621 10.4605 4.48431 10.423 4.50223C10.3518 4.45748 10.2696 4.20157 10.2734 4.06751C10.2735 4.06419 10.2735 4.06091 10.2735 4.05763L10.2712 1.04662C10.2712 1.03131 10.2701 1.01601 10.2681 1.00083C10.2096 0.571269 10.0957 0.140632 9.41581 0.00646393C9.39401 0.0021435 9.37184 0 9.34967 0H6.63901C6.12903 0 5.85929 0.233538 5.64303 0.486735C5.58044 0.560551 5.41412 0.756545 5.49885 0.996145C5.58459 1.23859 5.84007 1.28699 5.92393 1.30286C6.21933 1.35893 6.37208 1.52588 6.41937 1.84506C6.51285 2.46523 6.5243 3.12867 6.45548 3.9319C6.43629 4.14755 6.40059 4.31146 6.34298 4.44777C6.32704 4.48552 6.31304 4.50889 6.30326 4.52266C6.28765 4.51636 6.26337 4.50431 6.22974 4.4813C6.02216 4.33926 5.86572 4.11845 5.71444 3.90497C5.11018 3.05184 4.60191 2.10958 4.16039 1.02394C3.97856 0.579072 3.63674 0.330597 3.19854 0.324167C2.36366 0.310268 1.5915 0.310602 0.838743 0.325238C0.483697 0.331401 0.23472 0.443163 0.0986092 0.657476C-0.0376687 0.872192 -0.0326784 1.14595 0.11348 1.47129C1.15829 3.79462 2.10698 5.48474 3.18943 6.95148C3.9516 7.9841 4.71883 8.70089 5.60392 9.20728C6.53385 9.7393 7.58261 10 8.7993 10C8.93765 10 9.07842 9.99662 9.22106 9.98982C9.97171 9.95562 10.2771 9.65704 10.3104 8.92595C10.3291 8.53956 10.3721 8.22655 10.5213 7.95459C10.5631 7.87847 10.6102 7.82742 10.6473 7.81808C10.6867 7.80823 10.7567 7.83238 10.8345 7.88292C10.9767 7.97529 11.0992 8.10055 11.1999 8.2105C11.302 8.32226 11.4052 8.43771 11.505 8.54934C11.7174 8.78703 11.9371 9.03283 12.1673 9.26727C12.6878 9.79791 13.2879 10.0413 13.9516 9.99029L16.3364 9.99139C16.3365 9.99139 16.3365 9.99139 16.3365 9.99139C16.3441 9.99139 16.3517 9.99116 16.3593 9.99066C16.6343 9.97234 16.8721 9.82005 17.0118 9.57275C17.18 9.27494 17.1774 8.89772 17.0049 8.5633C16.8248 8.21563 16.5912 7.91638 16.3858 7.66874ZM16.417 9.23686C16.3841 9.2951 16.3435 9.30572 16.3226 9.30826L13.9383 9.30716C13.9382 9.30716 13.9382 9.30716 13.9381 9.30716C13.9287 9.30716 13.9192 9.30752 13.9099 9.30833C13.4402 9.34745 13.0409 9.18233 12.6548 8.7888C12.4358 8.56568 12.2216 8.32598 12.0143 8.09415C11.9134 7.98118 11.809 7.86433 11.7041 7.74952C11.574 7.60745 11.4132 7.44418 11.2066 7.31001C10.8973 7.10923 10.6409 7.11529 10.4804 7.15575C10.3215 7.19577 10.0957 7.30998 9.92241 7.62627C9.69788 8.03551 9.64835 8.477 9.62818 8.89407C9.61653 9.14914 9.57339 9.21653 9.55537 9.23364C9.53176 9.25608 9.45286 9.29554 9.18958 9.30756C7.92439 9.36704 6.86264 9.14047 5.94319 8.61441C5.14334 8.15678 4.44296 7.49944 3.73913 6.5459C2.68665 5.11985 1.7606 3.46844 0.736594 1.19133C0.699485 1.10884 0.68803 1.05737 0.684715 1.0298C0.710838 1.02123 0.76188 1.00994 0.85137 1.0083C1.59649 0.993868 2.36057 0.993466 3.18792 1.00726C3.30119 1.00894 3.43017 1.04293 3.52783 1.2819C3.98915 2.41623 4.52203 3.4034 5.15704 4.29991C5.32563 4.53786 5.53549 4.83406 5.84392 5.0451C6.12642 5.23854 6.35567 5.2293 6.49828 5.1875C6.64095 5.14567 6.83896 5.02946 6.97232 4.7137C7.05836 4.51017 7.11038 4.28098 7.13613 3.99141C7.20971 3.13225 7.19665 2.41794 7.0951 1.74418C7.02353 1.26147 6.77429 0.912751 6.38166 0.734675C6.45139 0.69837 6.52996 0.683232 6.63908 0.683232H9.3143C9.46481 0.716991 9.49462 0.756645 9.50484 0.77021C9.54817 0.827849 9.57296 0.964194 9.58809 1.07073L9.59037 4.05398C9.58434 4.33996 9.72333 4.97423 10.1966 5.14815C10.2005 5.14959 10.2044 5.15093 10.2083 5.1522C10.6391 5.293 10.9241 4.98886 11.0771 4.82546L11.1044 4.79645C11.8243 4.03234 12.3091 3.13952 12.6879 2.36803C12.8853 1.96965 13.0524 1.55757 13.1938 1.20235C13.2646 1.02421 13.3289 0.994873 13.4825 0.998121C13.4846 0.998188 13.4867 0.998188 13.4888 0.998188L16.098 1.0005C16.1587 1.0005 16.222 1.0012 16.2712 1.00961C16.3955 1.03078 16.4467 1.05656 16.4636 1.06725C16.4653 1.08704 16.4649 1.14398 16.4273 1.26281C16.2381 1.85859 15.8723 2.36479 15.4851 2.90072L15.4389 2.96479C15.2377 3.24317 15.0252 3.52327 14.8198 3.79418C14.5831 4.10636 14.3383 4.42912 14.1062 4.75486C13.6101 5.4471 13.6537 5.90647 14.2729 6.51039C14.4192 6.65324 14.5692 6.79531 14.7142 6.93269C15.1256 7.3223 15.5141 7.69028 15.8608 8.10577C16.0424 8.32461 16.2481 8.58742 16.3981 8.87706C16.4763 9.02867 16.4572 9.16565 16.417 9.23686Z"/>
</svg>
